<?xml version="1.0" encoding="UTF-8" standalone="no"?>
<svg
   version="1.1"
   style="shape-rendering:geometricPrecision; text-rendering:geometricPrecision; image-rendering:optimizeQuality;"
   id="svg6"
   sodipodi:docname="oboe.svg.2024_03_01_07_19_52.0.svg"
   inkscape:version="1.3.2 (091e20e, 2023-11-25)"
   xmlns:inkscape="http://www.inkscape.org/namespaces/inkscape"
   xmlns:sodipodi="http://sodipodi.sourceforge.net/DTD/sodipodi-0.dtd"
   xmlns:xlink="http://www.w3.org/1999/xlink"
   xmlns="http://www.w3.org/2000/svg"
   xmlns:svg="http://www.w3.org/2000/svg">
  <defs
     id="defs6">
    <linearGradient
       id="linearGradient15"
       inkscape:collect="always">
      <stop
         style="stop-color:#43444a;stop-opacity:1;"
         offset="0.42925456"
         id="stop15" />
      <stop
         style="stop-color:#43444a;stop-opacity:0;"
         offset="1"
         id="stop16" />
    </linearGradient>
    <linearGradient
       id="swatch13">
      <stop
         style="stop-color:#edf0f7;stop-opacity:1;"
         offset="0"
         id="stop13" />
    </linearGradient>
    <rect
       x="86.249364"
       y="763.72421"
       width="313.4162"
       height="167.26682"
       id="rect8" />
    <rect
       x="334.44763"
       y="444.61862"
       width="282.31315"
       height="117.05668"
       id="rect5" />
    <linearGradient
       inkscape:collect="always"
       xlink:href="#linearGradient15"
       id="linearGradient16"
       x1="88.957352"
       y1="826.89099"
       x2="268.42664"
       y2="826.89093"
       gradientUnits="userSpaceOnUse"
       spreadMethod="reflect" />
  </defs>
  <sodipodi:namedview
     id="namedview6"
     pagecolor="#ffffff"
     bordercolor="#000000"
     borderopacity="0.25"
     inkscape:showpageshadow="2"
     inkscape:pageopacity="0.0"
     inkscape:pagecheckerboard="0"
     inkscape:deskcolor="#d1d1d1"
     inkscape:zoom="0.5083008"
     inkscape:cx="441.66761"
     inkscape:cy="362.97405"
     inkscape:window-width="1664"
     inkscape:window-height="1212"
     inkscape:window-x="0"
     inkscape:window-y="25"
     inkscape:window-maximized="0"
     inkscape:current-layer="svg6" />
  <g
     id="g1"
     transform="matrix(-1.8129105,0,0,1.9380875,1469.379,-430.63947)">
    <path
       id="path1"
       style="opacity:0.999;fill:#43444a;fill-opacity:1"
       d="m 440.75423,263.14645 c 8.02409,0.0364 16.01345,0.58057 23.96484,1.63282 9.37089,3.36899 39.1263,-8.66851 20.27344,54.57226 l -14.67774,42.60352 c -4.84569,16.80448 -84.81481,-20.45357 -99.5957,-2.17578 6.48589,7.82189 12.98611,15.6551 19.5,23.5 2.994,5.31589 3.51939,7.04656 4.52539,13.06445 2.05812,13.13252 -7.88902,22.73968 -21.09765,51.50976 -28.61373,13.82631 -35.60053,-5.61901 -65.12305,2.73438 0.99337,-22.48486 3.77015,-17.86554 54.1289,-11.16406 21.78008,-34.65975 8.87624,-16.51234 19.60157,-38.72657 -2.18579,-8.95841 -6.15201,-22.07326 -24.06446,-22.89648 -5.10126,4.74314 -24.14579,31.2598 -27.01171,32.7168 -10.85289,9.20589 -20.47899,19.96783 -23.95899,33.76172 -1.3,20.65378 -1.633,41.32022 -1,62 15.66189,35.91056 49.71513,51.78198 88.38569,42.20509 -0.774,2.40499 -5.94643,14.98761 -6.17243,17.58261 -1.485,16.90278 1.89536,20.78251 5.71325,37.2123 -55.05734,6.88189 -101.31884,-13.11855 -129.92651,-60 -16.12778,-32.35267 -20.79489,-66.35344 -14,-102 7.01389,-36.75257 26.34733,-64.75322 58,-84 26.59867,-51.05045 68.09966,-82.38512 124.5,-94 2.68275,-0.10075 5.36043,-0.14495 8.03516,-0.13282 z M 307.23079,381.09372 c -0.67105,-0.007 -1.38401,0.0347 -2.13867,0.13086 -0.53122,0.0677 -3.07351,0.43058 -4.52735,1.33984 h -0.002 c -3.22486,1.03218 -5.86088,4.74808 -5.91601,4.82617 -7.93834,10.90201 -0.8229,17.93536 6.32031,18.78907 1.32324,0.14524 8.73426,-2.7881 10.06445,-2.8125 l 2.77344,-2.81836 c 0.16955,-0.42079 0.26665,-0.67473 0.44922,-1.1543 0.11717,-0.45941 0.32079,-0.87739 0.5039,-1.31055 0.0227,-0.0514 0.0416,-0.10405 0.0625,-0.15625 0.54767,-1.37479 0.86513,-2.52014 0.9336,-2.78125 0.61351,-1.90022 0.82395,-2.9216 0.88672,-3.71484 0.0211,-0.59896 0.0228,-2.12869 -0.42188,-3.37891 -0.30583,-1.06068 -2.2908,-6.89085 -8.98828,-6.95898 z m -19.06055,48.36133 c -0.35201,-0.004 -0.70427,0.0135 -1.05664,0.0527 -0.16316,0.0272 -0.3241,0.0603 -0.48437,0.0977 -0.62378,-0.002 -1.2442,0.0682 -1.83399,0.29297 -0.57456,0.20312 -1.19126,0.2842 -1.74414,0.55664 -0.60985,0.27439 -1.2442,0.49846 -1.82031,0.8457 -0.69629,0.34818 -1.39889,0.69597 -2.0293,1.15625 -0.69431,0.61541 -1.28503,1.31078 -1.61523,2.19336 -0.26396,0.66803 -0.50029,1.3483 -0.64844,2.05273 -0.16285,0.85838 -0.32585,1.71921 -0.31055,2.59766 -0.0197,1.89033 0.16128,3.7587 0.70508,5.57031 0.27065,0.70899 0.52701,1.425 0.86914,2.10352 0.37824,0.75709 0.79861,1.50052 1.33008,2.16211 0.44684,0.53582 0.9168,1.05305 1.45313,1.50195 0.7601,0.60391 1.61111,1.03474 2.59179,1.11524 0.52169,0.0347 1.04028,0.046 1.5625,0.008 0.59075,-0.0317 1.18324,-0.0757 1.76172,-0.20703 0.36298,-0.0852 0.72016,-0.1871 1.07031,-0.31055 0.17366,0.0222 0.49939,0.0393 0.5586,0.043 0.9156,0.0651 1.79003,-0.21236 2.62695,-0.54688 0.80531,-0.34302 1.52704,-0.83727 2.20313,-1.38672 0.56478,-0.4798 1.02559,-1.05192 1.42968,-1.66406 l 0.002,-0.002 c 0.33675,-0.32435 0.6555,-0.66969 0.95507,-1.02734 0.55822,-0.71644 0.84728,-1.578 1.14258,-2.42383 0.25383,-0.72175 0.39357,-1.4724 0.49414,-2.22852 0.0663,-0.51614 0.0926,-1.03687 0.10743,-1.55664 0.0265,-0.62133 0.0169,-1.23712 -0.0703,-1.85351 -0.0786,-0.54272 -0.22995,-1.07073 -0.39062,-1.59375 -0.20367,-0.65824 -0.50544,-1.277 -0.88281,-1.85157 -0.20194,-0.35428 -0.42836,-0.68037 -0.68946,-0.99609 -0.13125,-0.14701 -0.27047,-0.28492 -0.41211,-0.41992 -0.325,-0.62262 -0.72267,-1.19658 -1.16797,-1.74024 -0.53457,-0.65607 -1.18471,-1.19951 -1.89062,-1.66015 -0.83227,-0.53279 -1.79643,-0.70581 -2.75977,-0.81446 -0.35231,-0.0389 -0.70462,-0.0629 -1.05664,-0.0664 z m -7.32422,39.83203 c -1.27793,0.0546 -2.42735,0.4369 -3.49023,1.02734 -0.0337,0.009 -0.0678,0.0165 -0.10156,0.0254 -1.14373,0.35766 -2.28398,0.7585 -3.1875,1.58203 -0.559,0.49626 -1.12095,0.99348 -1.58008,1.58789 -0.47925,0.64288 -0.98782,1.27418 -1.33789,2 -0.44269,0.95701 -0.7868,1.94673 -0.99024,2.98438 -0.14084,0.8223 -0.26872,1.64311 -0.29882,2.47852 -0.0857,1.28615 -0.0347,2.57021 0.37695,3.80468 0.42774,1.14779 0.99352,2.23151 1.83984,3.13282 0.81054,0.84423 1.69793,1.5904 2.78125,2.06445 0.16478,0.0707 0.33478,0.13277 0.50196,0.19922 -0.0294,0.43845 0.5399,0.91977 2.0664,1.48633 1.08753,0.40363 2.24027,0.57378 3.38477,0.7246 1.31014,0.1699 2.58459,-0.0791 3.82422,-0.48046 1.01621,-0.34501 1.85072,-0.996 2.70898,-1.61133 0.81808,-0.61247 1.52408,-1.35213 2.20508,-2.10938 0.52607,-0.58863 0.94449,-1.25685 1.32812,-1.94336 0.13245,-0.18661 0.25817,-0.37881 0.3711,-0.58007 0.51104,-0.84864 0.90799,-1.74634 1.17578,-2.70118 0.31143,-1.04054 0.54383,-2.09987 0.6582,-3.18164 0.0745,-0.9545 0.215,-1.91691 0.0195,-2.86914 -0.12086,-0.65516 -0.26503,-1.33256 -0.54882,-1.9414 -0.0153,-0.0327 0.0183,0.0706 0.0273,0.10546 -0.4741,-1.40171 -1.20931,-2.62213 -2.4082,-3.53125 -1.09918,-0.7093 -2.15417,-1.16277 -3.42969,-1.43359 -0.91172,-0.17855 -1.82494,-0.32575 -2.74805,-0.43164 -0.35444,-0.0471 -0.71163,-0.0867 -1.06836,-0.11523 -0.29993,-0.0908 -0.60751,-0.15942 -0.91992,-0.20313 -0.38373,-0.0536 -0.7734,-0.0469 -1.16016,-0.0703 z m -1,11.16211 c 0.0646,-10e-4 0.12954,0.002 0.19532,0.0117 -0.0754,-0.001 -0.15117,-0.003 -0.22657,-0.004 -0.0427,-6.7e-4 -0.0633,0.002 -0.0859,0.004 0.0391,-0.005 0.0776,-0.0108 0.11718,-0.0117 z m -0.12695,0.0527 c 0.0449,0.0196 -0.0175,0.008 -0.004,0.0117 7.1e-4,-0.004 0.003,-0.008 0.004,-0.0117 z m -0.0332,0.375 c 0.0482,0.29238 -0.005,0.37455 0,0 z"
       sodipodi:nodetypes="scccccccccccccccccccccsssccccccccccccssccccccccccccccccccccccsccccccccccccccscccccccccccscccccccccscccccsssscscssccccc" />
  </g>
  <g
     id="g2"
     transform="matrix(1.8129105,0,0,1.9380875,-446.11875,-421.42251)"
     style="clip-rule:evenodd;fill-rule:evenodd;image-rendering:optimizeQuality;shape-rendering:geometricPrecision;text-rendering:geometricPrecision">
    <path
       id="path1-6"
       style="opacity:0.999;fill:#ccdbe0;fill-opacity:1;stroke:#ccdbe0;stroke-opacity:1"
       d="m 440.75423,263.14645 c 8.02409,0.0364 16.01345,0.58057 23.96484,1.63282 9.37089,3.36899 39.1263,-8.66851 20.27344,54.57226 l -14.67774,42.60352 c -4.84569,16.80448 -84.81481,-20.45357 -99.5957,-2.17578 6.48589,7.82189 12.98611,15.6551 19.5,23.5 2.994,5.31589 3.51939,7.04656 4.52539,13.06445 2.05812,13.13252 -7.88902,22.73968 -21.09765,51.50976 -28.61373,13.82631 -35.60053,-5.61901 -65.12305,2.73438 0.99337,-22.48486 3.77015,-17.86554 54.1289,-11.16406 21.78008,-34.65975 8.87624,-16.51234 19.60157,-38.72657 -2.18579,-8.95841 -6.15201,-22.07326 -24.06446,-22.89648 -5.10126,4.74314 -24.14579,31.2598 -27.01171,32.7168 -10.85289,9.20589 -20.47899,19.96783 -23.95899,33.76172 -1.3,20.65378 -1.633,41.32022 -1,62 15.66189,35.91056 185.72826,47.69388 226.61207,47.46185 -30.21717,22.43341 -11.65655,2.98197 -25.23923,23.15644 -6.94399,25.59322 -1.25248,-0.60186 -4.60202,20.3578 -55.7529,2.36076 -201.28964,-6.06154 -229.89731,-52.94299 -16.12778,-32.35267 -29.66839,-67.38654 -22.8735,-103.0331 7.01389,-36.75257 26.34733,-64.75322 58,-84 26.59867,-51.05045 68.09966,-82.38512 124.5,-94 2.68275,-0.10075 5.36043,-0.14495 8.03516,-0.13282 z M 307.23079,381.09372 c -0.67105,-0.007 -1.38401,0.0347 -2.13867,0.13086 -0.53122,0.0677 -3.07351,0.43058 -4.52735,1.33984 h -0.002 c -3.22486,1.03218 -5.86088,4.74808 -5.91601,4.82617 -7.93834,10.90201 -0.8229,17.93536 6.32031,18.78907 1.32324,0.14524 8.73426,-2.7881 10.06445,-2.8125 l 2.77344,-2.81836 c 0.16955,-0.42079 0.26665,-0.67473 0.44922,-1.1543 0.11717,-0.45941 0.32079,-0.87739 0.5039,-1.31055 0.0227,-0.0514 0.0416,-0.10405 0.0625,-0.15625 0.54767,-1.37479 0.86513,-2.52014 0.9336,-2.78125 0.61351,-1.90022 0.82395,-2.9216 0.88672,-3.71484 0.0211,-0.59896 0.0228,-2.12869 -0.42188,-3.37891 -0.30583,-1.06068 -2.2908,-6.89085 -8.98828,-6.95898 z m -19.06055,48.36133 c -0.35201,-0.004 -0.70427,0.0135 -1.05664,0.0527 -0.16316,0.0272 -0.3241,0.0603 -0.48437,0.0977 -0.62378,-0.002 -1.2442,0.0682 -1.83399,0.29297 -0.57456,0.20312 -1.19126,0.2842 -1.74414,0.55664 -0.60985,0.27439 -1.2442,0.49846 -1.82031,0.8457 -0.69629,0.34818 -1.39889,0.69597 -2.0293,1.15625 -0.69431,0.61541 -1.28503,1.31078 -1.61523,2.19336 -0.26396,0.66803 -0.50029,1.3483 -0.64844,2.05273 -0.16285,0.85838 -0.32585,1.71921 -0.31055,2.59766 -0.0197,1.89033 0.16128,3.7587 0.70508,5.57031 0.27065,0.70899 0.52701,1.425 0.86914,2.10352 0.37824,0.75709 0.79861,1.50052 1.33008,2.16211 0.44684,0.53582 0.9168,1.05305 1.45313,1.50195 0.7601,0.60391 1.61111,1.03474 2.59179,1.11524 0.52169,0.0347 1.04028,0.046 1.5625,0.008 0.59075,-0.0317 1.18324,-0.0757 1.76172,-0.20703 0.36298,-0.0852 0.72016,-0.1871 1.07031,-0.31055 0.17366,0.0222 0.49939,0.0393 0.5586,0.043 0.9156,0.0651 1.79003,-0.21236 2.62695,-0.54688 0.80531,-0.34302 1.52704,-0.83727 2.20313,-1.38672 0.56478,-0.4798 1.02559,-1.05192 1.42968,-1.66406 l 0.002,-0.002 c 0.33675,-0.32435 0.6555,-0.66969 0.95507,-1.02734 0.55822,-0.71644 0.84728,-1.578 1.14258,-2.42383 0.25383,-0.72175 0.39357,-1.4724 0.49414,-2.22852 0.0663,-0.51614 0.0926,-1.03687 0.10743,-1.55664 0.0265,-0.62133 0.0169,-1.23712 -0.0703,-1.85351 -0.0786,-0.54272 -0.22995,-1.07073 -0.39062,-1.59375 -0.20367,-0.65824 -0.50544,-1.277 -0.88281,-1.85157 -0.20194,-0.35428 -0.42836,-0.68037 -0.68946,-0.99609 -0.13125,-0.14701 -0.27047,-0.28492 -0.41211,-0.41992 -0.325,-0.62262 -0.72267,-1.19658 -1.16797,-1.74024 -0.53457,-0.65607 -1.18471,-1.19951 -1.89062,-1.66015 -0.83227,-0.53279 -1.79643,-0.70581 -2.75977,-0.81446 -0.35231,-0.0389 -0.70462,-0.0629 -1.05664,-0.0664 z m -7.32422,39.83203 c -1.27793,0.0546 -2.42735,0.4369 -3.49023,1.02734 -0.0337,0.009 -0.0678,0.0165 -0.10156,0.0254 -1.14373,0.35766 -2.28398,0.7585 -3.1875,1.58203 -0.559,0.49626 -1.12095,0.99348 -1.58008,1.58789 -0.47925,0.64288 -0.98782,1.27418 -1.33789,2 -0.44269,0.95701 -0.7868,1.94673 -0.99024,2.98438 -0.14084,0.8223 -0.26872,1.64311 -0.29882,2.47852 -0.0857,1.28615 -0.0347,2.57021 0.37695,3.80468 0.42774,1.14779 0.99352,2.23151 1.83984,3.13282 0.81054,0.84423 1.69793,1.5904 2.78125,2.06445 0.16478,0.0707 0.33478,0.13277 0.50196,0.19922 -0.0294,0.43845 0.5399,0.91977 2.0664,1.48633 1.08753,0.40363 2.24027,0.57378 3.38477,0.7246 1.31014,0.1699 2.58459,-0.0791 3.82422,-0.48046 1.01621,-0.34501 1.85072,-0.996 2.70898,-1.61133 0.81808,-0.61247 1.52408,-1.35213 2.20508,-2.10938 0.52607,-0.58863 0.94449,-1.25685 1.32812,-1.94336 0.13245,-0.18661 0.25817,-0.37881 0.3711,-0.58007 0.51104,-0.84864 0.90799,-1.74634 1.17578,-2.70118 0.31143,-1.04054 0.54383,-2.09987 0.6582,-3.18164 0.0745,-0.9545 0.215,-1.91691 0.0195,-2.86914 -0.12086,-0.65516 -0.26503,-1.33256 -0.54882,-1.9414 -0.0153,-0.0327 0.0183,0.0706 0.0273,0.10546 -0.4741,-1.40171 -1.20931,-2.62213 -2.4082,-3.53125 -1.09918,-0.7093 -2.15417,-1.16277 -3.42969,-1.43359 -0.91172,-0.17855 -1.82494,-0.32575 -2.74805,-0.43164 -0.35444,-0.0471 -0.71163,-0.0867 -1.06836,-0.11523 -0.29993,-0.0908 -0.60751,-0.15942 -0.91992,-0.20313 -0.38373,-0.0536 -0.7734,-0.0469 -1.16016,-0.0703 z m -1,11.16211 c 0.0646,-10e-4 0.12954,0.002 0.19532,0.0117 -0.0754,-0.001 -0.15117,-0.003 -0.22657,-0.004 -0.0427,-6.7e-4 -0.0633,0.002 -0.0859,0.004 0.0391,-0.005 0.0776,-0.0108 0.11718,-0.0117 z m -0.12695,0.0527 c 0.0449,0.0196 -0.0175,0.008 -0.004,0.0117 7.1e-4,-0.004 0.003,-0.008 0.004,-0.0117 z m -0.0332,0.375 c 0.0482,0.29238 -0.005,0.37455 0,0 z"
       sodipodi:nodetypes="scccccccccccccccccccccsscccccccccccccsscsccccccccccccccccccccsccccccccccccccssccccccccccscccccccccscccccsssscscsscccccc" />
  </g>
  <g
     id="g3"
     transform="matrix(1.8129105,0,0,1.9380875,-337.21712,-509.66251)">
    <path
       style="opacity:0.024"
       fill="#9ca7aa"
       d="m 614.5,299.5 c -0.986,4.47 -1.319,9.137 -1,14 -1.314,-4.848 -1.314,-9.848 0,-15 0.607,0.124 0.94,0.457 1,1 z"
       id="path3" />
  </g>
  <path
     style="clip-rule:evenodd;fill:#43444a;fill-opacity:1;fill-rule:evenodd;stroke-width:1.53441;image-rendering:optimizeQuality;shape-rendering:geometricPrecision;text-rendering:geometricPrecision"
     fill="#01021c"
     d="m 625.38311,633.92842 c -72.46567,-6.41815 -121.11149,33.66625 -145.9393,82.50899 -3.40647,55.7947 -5.82307,92.76596 -7.25164,148.65934 -1.00436,6.77403 -3.42097,13.26751 -7.25164,19.4805 -5.53663,7.29089 -11.27812,14.43373 -17.22266,21.42852 1.20921,2.59739 3.62582,4.32856 7.25164,5.19479 12.08668,0.43247 27.0694,-1.68875 36.25821,1.2987 6.17728,5.85664 8.95961,10.81366 16.50335,17.44945 1.09111,90.06829 26.22351,73.70849 25.3441,-0.13857 7.57718,-4.78511 11.4407,-9.01335 17.9786,-17.31096 9.12377,-2.98745 25.38075,-0.86623 38.07112,-1.2987 3.30856,-1.90389 4.21501,-4.28441 2.71937,-7.14284 l -16.31619,-19.48048 c -2.55258,-4.61947 -4.36549,-9.38179 -5.43873,-14.28567 -3.63127,-32.41162 -5.14142,-64.8791 -4.53229,-97.40241 63.41562,5.08182 127.74521,-6.45841 165.24889,-42.70898 21.56819,-27.39213 13.43701,-60.44144 3.3518,-91.05694 -1.58812,-0.97533 -3.40103,-1.62469 -5.43874,-1.94806 -34.76256,-0.62598 -69.20785,-1.7078 -103.33589,-3.24675 z m 1.97004,26.17141 c -30.98626,0.75194 -42.22972,19.19976 -32.39468,40.09322 11.49024,9.47661 21.97285,15.93138 37.67628,10.35087 18.80895,-15.52074 19.5716,-40.42333 -5.2816,-50.44409 z"
     id="path6"
     sodipodi:nodetypes="cccccccccccccccccccccccc" />
  <text
     xml:space="preserve"
     id="text8"
     style="font-style:normal;font-variant:normal;font-weight:bold;font-stretch:normal;font-size:128px;font-family:Helvetica;-inkscape-font-specification:'Helvetica Bold';white-space:pre;shape-inside:url(#rect8);display:inline;fill:#43444a;fill-opacity:1;fill-rule:nonzero;stroke:#ccdbe0"
     transform="matrix(1.8129105,0,0,1.9380875,115.8203,-1171.7655)"><tspan
       x="86.25"
       y="884.0813"
       id="tspan4"><tspan
         style="font-weight:normal;font-family:'DIN Alternate';-inkscape-font-specification:'DIN Alternate'"
         id="tspan3">Oboe</tspan></tspan></text>
</svg>
